<svg xmlns="http://www.w3.org/2000/svg" version="1.1" xmlns:xlink="http://www.w3.org/1999/xlink" width="1246px" height="1246px"><svg width="1246px" height="1246px" version="1.1" xmlns="http://www.w3.org/2000/svg" xmlns:xlink="http://www.w3.org/1999/xlink" xml:space="preserve" xmlns:serif="http://www.serif.com/" style="fill-rule:evenodd;clip-rule:evenodd;stroke-linejoin:round;stroke-miterlimit:2;"><path d="M967.545,300.368c-150.902,-0 -231.205,160.158 -316.225,329.731c-44.637,88.938 -90.758,180.97 -149.258,250.901c-70.599,84.529 -150.067,125.555 -242.833,125.555c-92.791,-0 -172.234,-41.026 -242.858,-125.555c-0.431,-0.456 -0.836,-1.021 -1.241,-1.543l0,350.114l911.289,-0l303.763,-303.457l0,-400.101c-68.245,-125.581 -143.401,-225.645 -262.637,-225.645Z" style="fill:#289448;fill-rule:nonzero;"></path><path d="M259.229,921.831c150.886,0 231.214,-160.158 316.226,-329.664c44.628,-89.006 90.766,-180.97 149.249,-250.976c70.625,-84.487 150.059,-125.513 242.841,-125.513c92.808,-0 172.242,41.026 242.85,125.513c6.768,8.101 13.341,16.496 19.787,25.162l0,-350.611l-911.289,-0l-303.763,303.457l0,410.105c63.512,109.65 135.546,192.527 244.099,192.527Z" style="fill:#289448;fill-rule:nonzero;"></path></svg><style>@media (prefers-color-scheme: light) { :root { filter: none; } }
@media (prefers-color-scheme: dark) { :root { filter: none; } }
</style></svg>