<svg xmlns="http://www.w3.org/2000/svg" version="1.1" xmlns:xlink="http://www.w3.org/1999/xlink" width="1246px" height="1246px"><svg width="1246px" height="1246px" version="1.1" xmlns="http://www.w3.org/2000/svg" xmlns:xlink="http://www.w3.org/1999/xlink" xml:space="preserve" xmlns:serif="http://www.serif.com/" style="fill-rule:evenodd;clip-rule:evenodd;stroke-linejoin:round;stroke-miterlimit:2;"><path d="M976.135,292.008c-154.661,0 -236.964,164.312 -324.101,338.284c-45.748,91.245 -93.018,185.664 -152.975,257.408c-72.358,86.722 -153.805,128.812 -248.881,128.812c-95.102,0 -176.523,-42.09 -248.907,-128.812c-0.441,-0.467 -0.856,-1.046 -1.271,-1.583l0,359.196l933.984,-0.001l311.329,-311.328l-0,-410.477c-69.946,-128.838 -146.973,-231.499 -269.178,-231.499Z" style="fill-rule:nonzero;"></path><path d="M250.178,929.591c154.644,0 236.973,-164.312 324.101,-338.215c45.74,-91.314 93.027,-185.664 152.966,-257.485c72.384,-86.679 153.796,-128.769 248.89,-128.769c95.119,-0 176.531,42.09 248.898,128.769c6.936,8.311 13.672,16.924 20.28,25.814l-0,-359.705l-933.985,-0l-311.328,311.328l0,420.743c65.094,112.493 138.922,197.52 250.178,197.52Z" style="fill-rule:nonzero;"></path></svg><style>@media (prefers-color-scheme: light) { :root { filter: none; } }
@media (prefers-color-scheme: dark) { :root { filter: invert(100%); } }
</style></svg>