<?xml version="1.0" encoding="UTF-8" standalone="no"?>
<!DOCTYPE svg PUBLIC "-//W3C//DTD SVG 1.1//EN" "http://www.w3.org/Graphics/SVG/1.1/DTD/svg11.dtd">
<svg width="100%" height="100%" viewBox="0 0 127 19" version="1.1" xmlns="http://www.w3.org/2000/svg" xmlns:xlink="http://www.w3.org/1999/xlink" xml:space="preserve" xmlns:serif="http://www.serif.com/" style="fill-rule:evenodd;clip-rule:evenodd;stroke-linejoin:round;stroke-miterlimit:2;">
    <g transform="matrix(1,0,0,1,-2.88892,-2.5498)">
        <path d="M51.814,2.556C46.549,2.556 42.479,6.318 42.479,11.824C42.479,17.331 46.549,21.091 51.814,21.091C57.079,21.091 61.15,17.333 61.15,11.824C61.15,6.316 57.083,2.556 51.814,2.556ZM51.814,16.317C49.333,16.317 47.721,14.332 47.721,11.833C47.721,9.333 49.333,7.344 51.814,7.344C54.296,7.344 55.908,9.333 55.908,11.833C55.908,14.332 54.296,16.309 51.814,16.309L51.814,16.317ZM33.914,7.348C34.67,7.352 35.407,7.604 36.021,8.068C36.635,8.533 37.097,9.186 37.341,9.938L41.793,7.759C40.768,5.29 38.518,2.55 33.914,2.55C28.699,2.55 24.667,6.284 24.667,11.818C24.667,17.353 28.712,21.087 33.914,21.087C38.518,21.087 40.793,18.237 41.793,15.848L37.341,13.702C37.099,14.457 36.638,15.114 36.024,15.581C35.41,16.048 34.672,16.301 33.914,16.307C31.561,16.307 29.901,14.322 29.901,11.824C29.901,9.327 31.561,7.34 33.914,7.34L33.914,7.348ZM95.672,13.824L93.077,2.855L89.197,2.855L86.618,13.814L84.418,2.855L78.629,2.855L83.516,20.775L88.937,20.775L91.151,10.616L93.351,20.771L98.772,20.771L103.652,2.855L97.843,2.855L95.672,13.824ZM123.901,2.855L123.901,11.883L117.967,2.855L112.646,2.855L112.646,20.775L117.815,20.775L117.815,11.153L124.105,20.769L129.067,20.769L129.067,2.855L123.901,2.855ZM104.723,20.775L109.889,20.775L109.889,2.855L104.723,2.855L104.723,20.775ZM78.232,9.003C78.232,5.644 76.084,2.849 72.09,2.849L62.99,2.849L62.99,20.769L68.153,20.769L68.153,15.022L70.021,15.022L72.374,20.769L78.257,20.769L75.161,14.429C76.51,13.731 78.232,12.094 78.232,9.003ZM71.308,10.509L68.153,10.509L68.153,7.364L71.308,7.364C72.177,7.364 72.996,7.957 72.996,8.922C72.996,9.888 72.169,10.509 71.308,10.509Z" style="fill-rule:nonzero;"/>
    </g>
    <g transform="matrix(1,0,0,1,-2.88892,-2.5498)">
        <path d="M19.778,21.091L2.889,21.091L2.889,2.909L19.778,2.909L19.778,6.374C13.968,7.545 11.662,8.908 11.662,8.908L19.778,8.617L19.778,8.644C14.359,9.787 12.195,11.068 12.195,11.068L19.778,10.796L19.778,21.091Z" style="fill-rule:nonzero;"/>
    </g>
</svg>
