<?xml version="1.0" encoding="UTF-8" standalone="no"?>
<!DOCTYPE svg PUBLIC "-//W3C//DTD SVG 1.1//EN" "http://www.w3.org/Graphics/SVG/1.1/DTD/svg11.dtd">
<svg width="100%" height="100%" viewBox="0 0 146 40" version="1.1" xmlns="http://www.w3.org/2000/svg" xmlns:xlink="http://www.w3.org/1999/xlink" xml:space="preserve" xmlns:serif="http://www.serif.com/" style="fill-rule:evenodd;clip-rule:evenodd;stroke-linejoin:round;stroke-miterlimit:2;">
    <g>
        <g>
            <clipPath id="_clip1">
                <rect x="0" y="0" width="146" height="40"/>
            </clipPath>
            <g clip-path="url(#_clip1)">
                <path d="M18.316,0.005L0,0.005L0,5.093L17.234,5.093C18.305,5.093 18.599,6.168 18.599,7.632C18.599,9.096 18.311,10.197 17.234,10.197L0,10.197L0,20.394L6.227,20.394L6.227,15.285L18.311,15.285C23.415,15.285 24.682,12.828 24.682,7.632C24.682,2.437 23.41,0.005 18.316,0.005ZM29.92,20.399L53.479,20.399L53.479,15.301L36.055,15.301L36.055,12.444L52.748,12.444L52.748,7.96L36.055,7.96L36.055,5.093L53.479,5.093L53.479,0L29.92,0L29.92,20.399ZM118.593,0L92.145,0L92.145,5.099L102.276,5.099L102.276,20.399L108.807,20.399L108.807,5.099L118.593,5.099L118.593,0ZM135.122,0L126.963,0L116.116,20.399L123.291,20.399L125.073,16.893L136.976,16.893L138.738,20.399L145.995,20.399L135.122,0ZM127.339,12.409L131.032,5.068L134.725,12.409L127.339,12.409ZM81.591,15.301L81.205,15.301L70.394,0L59.48,0L59.48,20.399L65.825,20.399L65.825,5.099L66.309,5.088L77.167,20.394L87.937,20.394L87.937,0L81.591,0L81.591,15.301Z" style="fill-rule:nonzero;"/>
                <path d="M39.907,31.734L35.349,40.001L37.213,40.001L38.254,38.076L43.271,38.076L44.311,40.001L46.176,40.001L41.617,31.734L39.907,31.734ZM38.877,36.781L40.762,33.356L42.647,36.781L38.872,36.781L38.877,36.781ZM23.58,40.001L31.573,40.001L31.573,38.378L25.212,38.378L25.212,36.525L31.393,36.525L31.393,35.189L25.212,35.189L25.212,33.362L31.573,33.362L31.573,31.729L23.58,31.729L23.58,40.001ZM17.729,37.17C18.084,37.103 18.372,36.975 18.599,36.791C18.826,36.607 18.985,36.356 19.088,36.034C19.191,35.716 19.238,35.302 19.238,34.795L19.238,34.288C19.238,33.822 19.196,33.428 19.109,33.1C19.027,32.773 18.887,32.507 18.702,32.307C18.517,32.107 18.275,31.959 17.971,31.867C17.667,31.775 17.296,31.729 16.853,31.729L10.059,31.729L10.059,33.377L16.807,33.377C17.162,33.377 17.383,33.474 17.476,33.669C17.569,33.863 17.615,34.165 17.615,34.564L17.615,34.964C17.615,35.322 17.553,35.578 17.43,35.721C17.306,35.865 17.095,35.936 16.807,35.936L10.059,35.936L10.059,40.001L11.702,40.001L11.702,37.298L14.324,37.298L17.203,40.001L19.5,40.001L16.415,37.272C16.93,37.272 17.368,37.237 17.723,37.17L17.729,37.17ZM51.743,31.734L50.111,31.734L50.111,40.001L58.007,40.001L58.007,38.368L51.743,38.368L51.743,31.734ZM107.911,31.734L103.353,40.001L105.217,40.001L106.258,38.076L111.274,38.076L112.315,40.001L114.174,40.001L109.616,31.734L107.911,31.734ZM106.881,36.781L108.766,33.356L110.651,36.781L106.881,36.781ZM135.936,33.367L135.936,31.734L127.942,31.734L127.942,40.001L135.936,40.001L135.936,38.378L129.575,38.378L129.575,36.525L135.755,36.525L135.755,35.189L129.575,35.189L129.575,33.362L135.936,33.362L135.936,33.367ZM116.168,33.367L119.201,33.367L119.201,40.001L120.834,40.001L120.834,33.367L123.868,33.367L123.868,31.734L116.168,31.734L116.168,33.367ZM89.189,35.711C88.972,35.532 88.684,35.404 88.328,35.322C87.973,35.24 87.54,35.194 87.02,35.194L83.693,35.194C83.291,35.194 83.018,35.128 82.879,34.984C82.735,34.846 82.668,34.611 82.668,34.283C82.668,33.955 82.74,33.72 82.879,33.587C83.018,33.449 83.291,33.382 83.693,33.382L89.317,33.382C89.358,33.1 89.394,32.829 89.425,32.558C89.456,32.286 89.487,32.015 89.523,31.734L83.698,31.734C83.188,31.734 82.766,31.78 82.421,31.867C82.075,31.954 81.803,32.092 81.591,32.276C81.38,32.461 81.231,32.701 81.143,32.998C81.056,33.295 81.009,33.648 81.009,34.058L81.009,34.334C81.009,34.713 81.056,35.041 81.143,35.317C81.231,35.599 81.38,35.829 81.586,36.013C81.792,36.197 82.06,36.336 82.395,36.423C82.73,36.51 83.147,36.556 83.646,36.556L87.02,36.556C87.448,36.556 87.736,36.622 87.891,36.755C88.045,36.889 88.122,37.124 88.122,37.472C88.122,37.646 88.102,37.795 88.066,37.912C88.03,38.03 87.968,38.122 87.885,38.194C87.803,38.266 87.685,38.317 87.535,38.342C87.386,38.373 87.2,38.383 86.984,38.383L81.323,38.383C81.308,38.655 81.287,38.926 81.267,39.192C81.246,39.463 81.231,39.73 81.215,40.001L87.092,40.001C87.587,40.001 88.004,39.96 88.349,39.873C88.694,39.786 88.977,39.653 89.189,39.463C89.405,39.274 89.559,39.028 89.652,38.726C89.75,38.419 89.796,38.051 89.796,37.61L89.796,37.324C89.796,36.965 89.75,36.648 89.652,36.382C89.554,36.11 89.4,35.89 89.178,35.716L89.189,35.711ZM68.874,40.001L76.868,40.001L76.868,38.378L70.507,38.378L70.507,36.525L76.688,36.525L76.688,35.189L70.507,35.189L70.507,33.362L76.868,33.362L76.868,31.729L68.874,31.729L68.874,40.001ZM93.649,33.367L96.683,33.367L96.683,40.001L98.315,40.001L98.315,33.367L101.349,33.367L101.349,31.734L93.649,31.734L93.649,33.367Z" style="fill-rule:nonzero;"/>
            </g>
        </g>
    </g>
</svg>
