<?xml version="1.0" encoding="UTF-8" standalone="no"?>
<!DOCTYPE svg PUBLIC "-//W3C//DTD SVG 1.1//EN" "http://www.w3.org/Graphics/SVG/1.1/DTD/svg11.dtd">
<svg width="100%" height="100%" viewBox="0 0 593 79" version="1.1" xmlns="http://www.w3.org/2000/svg" xmlns:xlink="http://www.w3.org/1999/xlink" xml:space="preserve" xmlns:serif="http://www.serif.com/" style="fill-rule:evenodd;clip-rule:evenodd;stroke-linejoin:round;stroke-miterlimit:2;">
    <g id="Group_33">
        <g id="Path_411" transform="matrix(1,0,0,1,151.478,9.906)">
            <path d="M162.01,24.136L191.519,24.136L191.519,53.643L162.01,53.643L162.01,24.136ZM176.764,68.113C192.79,68.102 205.971,54.913 205.971,38.887C205.971,22.854 192.778,9.661 176.745,9.661C160.712,9.661 147.519,22.854 147.519,38.887C147.519,46.64 150.604,54.082 156.088,59.562C161.567,65.046 169.012,68.125 176.764,68.113" style="fill-rule:nonzero;"/>
        </g>
        <g id="Path_412" transform="matrix(1,0,0,1,114.982,9.905)">
            <path d="M141.23,22.663C141.23,22.663 141.231,22.663 141.231,22.663C150.132,22.663 157.456,29.987 157.456,38.888C157.456,47.789 150.132,55.113 141.231,55.113C132.33,55.113 125.006,47.789 125.006,38.888C125.006,38.888 125.006,38.887 125.006,38.887C125.016,29.991 132.334,22.673 141.23,22.663M141.23,68.126C157.27,68.126 170.469,54.927 170.469,38.887C170.469,22.847 157.27,9.648 141.23,9.648C125.19,9.648 111.991,22.847 111.991,38.887C112.011,54.92 125.197,68.106 141.23,68.126" style="fill-rule:nonzero;"/>
        </g>
        <g id="Path_413" transform="matrix(1,0,0,1,82.071,11.652)">
            <path d="M93.991,32.078L115.431,22.968L115.431,63.768L129.484,63.768L129.484,11.349L111.824,11.349L93.991,18.643L93.991,11.349L79.936,11.349L79.936,63.766L93.991,63.766L93.991,32.078Z" style="fill-rule:nonzero;"/>
        </g>
        <g id="Path_414" transform="matrix(1,0,0,1,57.193,11.662)">
            <path d="M78.974,11.359L64.918,11.359L64.918,51.242L55.7,51.242L55.7,63.733L88.187,63.733L88.187,51.242L78.974,51.242L78.974,11.359Z" style="fill-rule:nonzero;"/>
        </g>
        <g id="Rectangle_52" transform="matrix(1,0,0,1,122.111,0)">
            <rect x="0" y="0" width="14.055" height="14.055"/>
        </g>
        <g id="Path_415" transform="matrix(1,0,0,1,0,9.941)">
            <path d="M14.055,19.024L14.055,13.059L0,13.059L0,65.48L14.055,65.48L14.055,32.759L40.048,21.626L36.2,9.683L14.055,19.024Z" style="fill-rule:nonzero;"/>
        </g>
        <g id="Path_416" transform="matrix(1,0,0,1,24.238,11.361)">
            <path d="M38.739,33.5L60.918,33.5L60.918,22.633C57.396,22.266 53.849,22.21 50.318,22.467C43.772,22.939 39.337,27.128 38.737,33.504M72.046,12.382L72.046,43.582L38.8,43.582C38.808,43.606 40.431,50.315 48.534,51.912C57.512,53.683 67.579,52.612 72.044,51.904L72.044,63.811C67.288,64.531 62.483,64.887 57.673,64.877C48.308,64.877 39.901,64.151 32.603,58.165C25.895,52.658 23.603,46.025 23.603,37.882C23.603,24.869 30.23,16.914 40.183,13.367C48.549,10.384 59.471,10.576 72.041,12.382" style="fill-rule:nonzero;"/>
        </g>
        <g id="Path_417" transform="matrix(1,0,0,1,206.21,10.727)">
            <path d="M200.847,29.838L200.847,10.449L207.272,10.449C208.336,10.42 209.394,10.608 210.383,11.002C211.166,11.321 211.87,11.807 212.446,12.425C212.947,12.971 213.337,13.608 213.595,14.302C213.827,14.92 213.95,15.573 213.958,16.233C213.98,17.367 213.699,18.487 213.145,19.476C212.567,20.448 211.719,21.231 210.703,21.728L215.18,29.839L211.052,29.839L207.126,22.194L204.366,22.194L204.366,29.839L200.847,29.838ZM204.365,19.169L207.3,19.169C208.104,19.218 208.892,18.921 209.465,18.354C209.974,17.824 210.251,17.112 210.235,16.378C210.263,15.616 209.968,14.876 209.422,14.343C208.848,13.809 208.083,13.526 207.3,13.559L204.363,13.559L204.365,19.169Z" style="fill-rule:nonzero;"/>
        </g>
        <g id="Path_418" transform="matrix(1,0,0,1,224.029,10.728)">
            <path d="M218.2,29.839L218.2,10.449L230.76,10.449L230.76,13.676L221.86,13.676L221.86,18.24L228.4,18.24L228.4,21.5L221.86,21.5L221.86,26.557L231.424,26.557L231.424,29.842L218.2,29.839Z" style="fill-rule:nonzero;"/>
        </g>
        <g id="Path_419" transform="matrix(1,0,0,1,240.684,10.728)">
            <path d="M234.424,29.839L241.779,10.45L245.557,10.45L252.912,29.839L248.842,29.839L247.156,24.926L239.947,24.926L238.261,29.839L234.424,29.839ZM240.964,21.902L246.11,21.902L243.552,14.373L240.964,21.902Z" style="fill-rule:nonzero;"/>
        </g>
        <g id="Path_420" transform="matrix(1,0,0,1,260.402,10.728)">
            <path d="M253.629,29.839L253.629,10.449L257.291,10.449L257.291,26.584L266.855,26.584L266.855,29.839L253.629,29.839Z" style="fill-rule:nonzero;"/>
        </g>
        <g id="Path_421" transform="matrix(1,0,0,1,206.211,28.379)">
            <path d="M200.848,47.031L200.848,27.642L213.405,27.642L213.405,30.869L204.505,30.869L204.505,35.433L211.045,35.433L211.045,38.69L204.505,38.69L204.505,43.747L214.069,43.747L214.069,47.032L200.848,47.031Z" style="fill-rule:nonzero;"/>
        </g>
        <g id="Path_422" transform="matrix(1,0,0,1,223.19,28.115)">
            <path d="M217.385,44.185L219.943,41.83C220.276,42.179 220.664,42.557 221.106,42.965C221.584,43.392 222.123,43.745 222.706,44.011C223.382,44.313 224.116,44.462 224.856,44.447C225.776,44.522 226.689,44.235 227.4,43.647C227.929,43.168 228.23,42.486 228.229,41.772C228.256,40.99 227.869,40.249 227.212,39.824C226.086,39.202 224.853,38.797 223.578,38.63C222.528,38.454 221.53,38.047 220.657,37.438C219.926,36.918 219.336,36.224 218.94,35.419C218.568,34.654 218.375,33.814 218.375,32.963C218.369,31.997 218.625,31.047 219.115,30.215C219.651,29.333 220.428,28.622 221.354,28.166C222.527,27.605 223.819,27.336 225.118,27.382C226.011,27.364 226.902,27.477 227.763,27.716C228.413,27.901 229.034,28.174 229.609,28.529C230.03,28.789 230.416,29.101 230.758,29.459C231.03,29.759 231.222,29.978 231.34,30.114L228.926,32.382C228.811,32.264 228.581,32.062 228.243,31.772C227.847,31.445 227.407,31.176 226.936,30.972C226.324,30.715 225.664,30.592 225,30.611C224.192,30.542 223.389,30.804 222.777,31.337C222.356,31.708 222.099,32.232 222.064,32.792C222.054,33.449 222.363,34.072 222.893,34.462C223.873,35.062 224.967,35.454 226.105,35.611C227.094,35.818 228.048,36.165 228.938,36.643C229.809,37.107 230.545,37.788 231.076,38.619C231.654,39.599 231.936,40.725 231.889,41.862C231.903,42.942 231.589,44 230.989,44.898C230.366,45.819 229.508,46.557 228.504,47.036C227.385,47.573 226.156,47.841 224.915,47.82C222.775,47.866 220.688,47.149 219.027,45.799C218.429,45.316 217.879,44.776 217.385,44.186" style="fill-rule:nonzero;"/>
        </g>
        <g id="Path_423" transform="matrix(1,0,0,1,240.376,28.379)">
            <path d="M240.692,47.031L240.692,30.868L234.123,30.868L234.123,27.642L250.923,27.642L250.923,30.869L244.352,30.869L244.352,47.031L240.692,47.031Z" style="fill-rule:nonzero;"/>
        </g>
        <g id="Path_424" transform="matrix(1,0,0,1,257,28.379)">
            <path d="M250.316,47.031L257.671,27.642L261.449,27.642L268.8,47.031L264.73,47.031L263.044,42.118L255.835,42.118L254.149,47.031L250.316,47.031ZM256.856,39.094L262,39.094L259.442,31.565L256.856,39.094Z" style="fill-rule:nonzero;"/>
        </g>
        <g id="Path_425" transform="matrix(1,0,0,1,274.481,28.379)">
            <path d="M273.91,47.031L273.91,30.868L267.341,30.868L267.341,27.642L284.141,27.642L284.141,30.869L277.57,30.869L277.57,47.031L273.91,47.031Z" style="fill-rule:nonzero;"/>
        </g>
        <g id="Path_426" transform="matrix(1,0,0,1,293.55,28.379)">
            <path d="M285.915,47.031L285.915,27.642L298.472,27.642L298.472,30.869L289.572,30.869L289.572,35.433L296.112,35.433L296.112,38.69L289.572,38.69L289.572,43.747L299.136,43.747L299.136,47.032L285.915,47.031Z" style="fill-rule:nonzero;"/>
        </g>
    </g>
</svg>
