<?xml version="1.0" encoding="UTF-8" standalone="no"?>
<!DOCTYPE svg PUBLIC "-//W3C//DTD SVG 1.1//EN" "http://www.w3.org/Graphics/SVG/1.1/DTD/svg11.dtd">
<svg width="100%" height="100%" viewBox="0 0 46 19" version="1.1" xmlns="http://www.w3.org/2000/svg" xmlns:xlink="http://www.w3.org/1999/xlink" xml:space="preserve" xmlns:serif="http://www.serif.com/" style="fill-rule:evenodd;clip-rule:evenodd;stroke-linejoin:round;stroke-miterlimit:2;">
    <g transform="matrix(1,0,0,1,-65.8386,-195.331)">
        <g transform="matrix(0.352778,0,0,-0.352778,67.6683,211.635)">
            <path d="M0,0C-1.778,0.539 -2.557,0.881 -2.557,1.898C-2.557,2.808 -1.345,3.131 -0.307,3.131C0.601,3.131 1.577,2.861 2.24,2.427C2.397,2.325 2.59,2.294 2.77,2.344C2.95,2.392 3.102,2.517 3.186,2.684L3.488,3.288C3.636,3.586 3.539,3.948 3.26,4.131C2.305,4.755 0.95,5.142 -0.276,5.142C-2.852,5.142 -4.584,3.819 -4.584,1.85C-4.584,-0.708 -2.423,-1.355 -0.689,-1.876C1.127,-2.42 1.921,-2.77 1.911,-3.851C1.911,-4.936 0.634,-5.322 -0.561,-5.322C-1.706,-5.322 -2.952,-4.713 -3.709,-4.014C-3.86,-3.875 -4.055,-3.795 -4.257,-3.818C-4.46,-3.841 -4.641,-3.958 -4.746,-4.134L-5.094,-4.722C-5.249,-4.981 -5.206,-5.312 -4.991,-5.524C-3.868,-6.63 -2.177,-7.318 -0.577,-7.318C2.123,-7.318 3.937,-5.917 3.937,-3.84C3.958,-1.201 1.763,-0.535 0,0" style="fill-rule:nonzero;"/>
        </g>
        <g transform="matrix(0.352778,0,0,-0.352778,71.8649,209.967)">
            <path d="M0,0C-0.107,0.233 -0.34,0.383 -0.597,0.383L-1.311,0.383C-1.569,0.383 -1.802,0.233 -1.908,-0.002L-6.942,-11.101C-7.034,-11.305 -7.017,-11.54 -6.897,-11.728C-6.775,-11.917 -6.568,-12.029 -6.345,-12.029L-5.615,-12.029C-5.357,-12.029 -5.123,-11.878 -5.017,-11.643L-3.762,-8.869L1.888,-8.869L3.158,-11.646C3.265,-11.879 3.498,-12.029 3.754,-12.029L4.485,-12.029C4.709,-12.029 4.916,-11.915 5.037,-11.727C5.158,-11.54 5.174,-11.304 5.081,-11.099L0,0ZM-2.883,-6.889L-0.959,-2.624L0.987,-6.889L-2.883,-6.889" style="fill-rule:nonzero;"/>
        </g>
        <g transform="matrix(0.352778,0,0,-0.352778,74.8194,209.833)">
            <path d="M0,0L-0.666,0C-1.028,0 -1.322,-0.294 -1.322,-0.656L-1.322,-11.755C-1.322,-12.118 -1.028,-12.411 -0.666,-12.411L0,-12.411C0.362,-12.411 0.656,-12.118 0.656,-11.755L0.656,-0.656C0.656,-0.294 0.362,0 0,0" style="fill-rule:nonzero;"/>
        </g>
        <g transform="matrix(0.352778,0,0,-0.352778,79.7044,209.833)">
            <path d="M0,0L-0.651,0C-1.015,0 -1.308,-0.294 -1.308,-0.656L-1.308,-8.74L-7.538,-0.267C-7.662,-0.098 -7.858,0 -8.067,0L-8.845,0C-9.208,0 -9.501,-0.294 -9.501,-0.656L-9.501,-11.755C-9.501,-12.118 -9.208,-12.411 -8.845,-12.411L-8.179,-12.411C-7.816,-12.411 -7.522,-12.118 -7.522,-11.755L-7.522,-3.675L-1.308,-12.145C-1.185,-12.312 -0.988,-12.411 -0.778,-12.411L0,-12.411C0.362,-12.411 0.656,-12.118 0.656,-11.755L0.656,-0.656C0.656,-0.294 0.362,0 0,0" style="fill-rule:nonzero;"/>
        </g>
        <g transform="matrix(0.352778,0,0,-0.352778,83.7429,209.833)">
            <path d="M0,0L-8.163,0C-8.525,0 -8.818,-0.294 -8.818,-0.656L-8.818,-1.308C-8.818,-1.669 -8.525,-1.963 -8.163,-1.963L-5.07,-1.963L-5.07,-11.755C-5.07,-12.118 -4.776,-12.411 -4.414,-12.411L-3.749,-12.411C-3.385,-12.411 -3.091,-12.118 -3.091,-11.755L-3.091,-1.963L0,-1.963C0.363,-1.963 0.656,-1.669 0.656,-1.308L0.656,-0.656C0.656,-0.294 0.363,0 0,0" style="fill-rule:nonzero;"/>
        </g>
        <g transform="matrix(0.352778,0,0,-0.352778,85.4652,211.967)">
            <path d="M0,0L-3.542,0C-3.904,0 -4.198,-0.293 -4.198,-0.656L-4.198,-1.196C-4.198,-1.559 -3.904,-1.852 -3.542,-1.852L0,-1.852C0.362,-1.852 0.655,-1.559 0.655,-1.196L0.655,-0.656C0.655,-0.293 0.362,0 0,0" style="fill-rule:nonzero;"/>
        </g>
        <g transform="matrix(0.352778,0,0,-0.352778,90.3304,211.826)">
            <path d="M0,0L-0.604,0C-0.607,0 -0.611,-0.001 -0.615,-0.001L-2.585,-0.001C-2.948,-0.001 -3.242,-0.295 -3.242,-0.657L-3.242,-1.324C-3.242,-1.686 -2.948,-1.98 -2.585,-1.98L-1.259,-1.98L-1.259,-4.009C-2.032,-4.539 -2.961,-4.827 -3.906,-4.827C-6.355,-4.827 -8.347,-2.907 -8.347,-0.546C-8.347,1.807 -6.355,3.721 -3.906,3.721C-2.769,3.721 -1.65,3.302 -0.835,2.571C-0.701,2.451 -0.523,2.39 -0.344,2.405C-0.164,2.419 0.001,2.507 0.114,2.647L0.511,3.139C0.731,3.414 0.698,3.814 0.432,4.046C-0.76,5.091 -2.302,5.669 -3.906,5.669C-7.446,5.669 -10.327,2.882 -10.327,-0.546C-10.327,-3.981 -7.461,-6.774 -3.938,-6.774C-2.345,-6.774 -0.755,-6.19 0.429,-5.171C0.573,-5.047 0.657,-4.865 0.657,-4.673L0.657,-0.656C0.657,-0.295 0.362,0 0,0" style="fill-rule:nonzero;"/>
        </g>
        <g transform="matrix(0.352778,0,0,-0.352778,93.613,209.827)">
            <path d="M0,0C-3.531,0 -6.404,-2.787 -6.404,-6.214C-6.404,-9.65 -3.531,-12.443 0,-12.443C3.531,-12.443 6.405,-9.65 6.405,-6.214C6.405,-2.787 3.531,0 0,0M0,-10.48C-2.432,-10.48 -4.41,-8.566 -4.41,-6.214C-4.41,-3.87 -2.432,-1.964 0,-1.964C2.431,-1.964 4.409,-3.87 4.409,-6.214C4.409,-8.566 2.431,-10.48 0,-10.48" style="fill-rule:nonzero;"/>
        </g>
        <g transform="matrix(0.352778,0,0,-0.352778,99.5802,211.898)">
            <path d="M0,0C0.668,0.575 1.039,1.422 1.039,2.452C1.039,4.551 -0.539,5.855 -3.079,5.855L-7.621,5.855C-7.982,5.855 -8.276,5.561 -8.276,5.199L-8.276,-5.901C-8.276,-6.263 -7.982,-6.557 -7.621,-6.557L-3.047,-6.557C-0.14,-6.557 1.594,-5.196 1.594,-2.917C1.594,-1.627 1.011,-0.601 0,0M-3.095,0.821L-6.298,0.821L-6.298,3.891L-3.095,3.891C-2.113,3.891 -0.94,3.628 -0.94,2.372C-0.94,1.343 -1.665,0.821 -3.095,0.821M-6.298,-1.142L-3.095,-1.142C-2.083,-1.142 -0.385,-1.362 -0.385,-2.836C-0.385,-4.289 -1.858,-4.594 -3.095,-4.594L-6.298,-4.594L-6.298,-1.142" style="fill-rule:nonzero;"/>
        </g>
        <g transform="matrix(0.352778,0,0,-0.352778,102.984,209.967)">
            <path d="M0,0C-0.107,0.233 -0.34,0.383 -0.597,0.383L-1.311,0.383C-1.57,0.383 -1.803,0.233 -1.91,-0.002L-6.943,-11.101C-7.035,-11.305 -7.018,-11.54 -6.896,-11.728C-6.775,-11.917 -6.568,-12.029 -6.344,-12.029L-5.614,-12.029C-5.356,-12.029 -5.122,-11.878 -5.016,-11.643L-3.761,-8.869L1.887,-8.869L3.157,-11.646C3.264,-11.879 3.498,-12.029 3.754,-12.029L4.484,-12.029C4.707,-12.029 4.916,-11.915 5.036,-11.727C5.157,-11.54 5.174,-11.304 5.081,-11.099L0,0ZM-2.883,-6.889L-0.959,-2.624L0.987,-6.889L-2.883,-6.889" style="fill-rule:nonzero;"/>
        </g>
        <g transform="matrix(0.352778,0,0,-0.352778,105.938,209.833)">
            <path d="M0,0L-0.667,0C-1.029,0 -1.324,-0.294 -1.324,-0.656L-1.324,-11.755C-1.324,-12.118 -1.029,-12.411 -0.667,-12.411L0,-12.411C0.362,-12.411 0.658,-12.118 0.658,-11.755L0.658,-0.656C0.658,-0.294 0.362,0 0,0" style="fill-rule:nonzero;"/>
        </g>
        <g transform="matrix(0.352778,0,0,-0.352778,110.823,209.833)">
            <path d="M0,0L-0.652,0C-1.014,0 -1.307,-0.294 -1.307,-0.656L-1.307,-8.74L-7.538,-0.267C-7.661,-0.098 -7.858,0 -8.067,0L-8.845,0C-9.208,0 -9.502,-0.294 -9.502,-0.656L-9.502,-11.755C-9.502,-12.118 -9.208,-12.411 -8.845,-12.411L-8.178,-12.411C-7.816,-12.411 -7.523,-12.118 -7.523,-11.755L-7.523,-3.675L-1.307,-12.145C-1.184,-12.312 -0.988,-12.411 -0.779,-12.411L0,-12.411C0.362,-12.411 0.655,-12.118 0.655,-11.755L0.655,-0.656C0.655,-0.294 0.362,0 0,0" style="fill-rule:nonzero;"/>
        </g>
        <g transform="matrix(0.352778,0,0,-0.352778,45.9075,247.257)">
            <g>
                <g>
                    <g>
                        <path d="M128.549,123.501L128.549,112.589L126.54,112.589L126.54,125.002L128.549,123.501ZM167.496,112.625L159.593,112.625L159.537,112.68L152.586,119.555C152.303,119.835 151.867,119.921 151.498,119.767C151.124,119.611 150.882,119.249 150.882,118.844L150.882,112.589L148.817,112.589L148.817,128.068C148.817,128.342 148.702,128.607 148.503,128.795L142.728,134.249C142.542,134.425 142.297,134.522 142.041,134.522L139.154,134.522C138.602,134.522 138.153,134.073 138.153,133.522L138.153,112.589L136.104,112.589L136.104,146.195C136.104,146.603 135.86,146.966 135.483,147.12C135.113,147.272 134.669,147.18 134.391,146.897L124.827,137.192C124.641,137.004 124.539,136.754 124.539,136.49L124.539,128.993L120.623,131.917C120.267,132.182 119.745,132.173 119.399,131.896L110.495,124.758C110.257,124.567 110.121,124.282 110.121,123.977L110.121,112.589L108.103,112.589L108.103,118.866C108.103,121.07 106.585,123.413 103.774,123.413C100.962,123.413 99.445,121.059 99.445,118.844L99.445,112.589L97.404,112.59L97.404,116.848C97.404,118.574 96.216,120.407 94.014,120.407C91.812,120.407 90.624,118.572 90.624,116.844L90.624,112.588L88.591,112.587L88.59,112.776C88.587,113.634 88.584,114.733 88.584,115.174C88.584,116.64 87.2,117.925 85.622,117.925C84.044,117.925 82.66,116.646 82.66,115.187L82.66,112.589L73.744,112.59C73.192,112.59 72.744,112.141 72.743,111.59C72.743,111.322 72.847,111.071 73.036,110.882C73.225,110.693 73.476,110.589 73.743,110.589L83.66,110.588C83.927,110.588 84.179,110.692 84.367,110.881C84.556,111.07 84.661,111.321 84.661,111.588L84.661,115.006C84.661,115.376 85.064,115.925 85.622,115.925C86.172,115.925 86.584,115.423 86.584,114.974C86.584,114.717 86.594,111.582 86.594,111.582C86.597,111.032 87.045,110.585 87.594,110.585L91.625,110.588C92.176,110.588 92.625,111.037 92.625,111.588L92.625,116.844C92.625,117.385 92.915,118.407 94.014,118.407C95.113,118.407 95.404,117.388 95.404,116.848L95.404,111.591C95.404,111.039 95.852,110.59 96.403,110.59L100.444,110.588C100.708,110.588 100.966,110.695 101.152,110.881C101.338,111.067 101.445,111.325 101.445,111.588L101.445,118.844C101.445,119.732 101.932,121.413 103.774,121.413C105.482,121.413 106.102,119.89 106.102,118.866L106.102,111.588C106.102,111.037 106.551,110.588 107.102,110.588L111.121,110.588C111.673,110.588 112.121,111.037 112.121,111.588L112.121,123.497L112.193,123.555L120.046,129.851L124.539,126.496L124.539,111.588C124.539,111.037 124.988,110.588 125.539,110.588L129.55,110.588C130.101,110.588 130.55,111.037 130.55,111.588L130.55,124.003C130.55,124.316 130.399,124.616 130.148,124.804L126.54,127.499L126.54,136.08L126.595,136.136L134.103,143.755L134.103,111.588C134.103,111.037 134.552,110.588 135.103,110.588L139.154,110.588C139.705,110.588 140.154,111.037 140.154,111.588L140.154,132.522L141.643,132.522L141.698,132.47L146.816,127.637L146.816,111.588C146.816,111.037 147.265,110.588 147.816,110.588L151.882,110.588C152.434,110.588 152.883,111.037 152.883,111.588L152.883,116.448L158.478,110.914C158.667,110.728 158.917,110.625 159.181,110.625L167.496,110.625C168.048,110.625 168.497,111.074 168.497,111.625C168.497,112.177 168.048,112.625 167.496,112.625" style="fill-rule:nonzero;"/>
                    </g>
                </g>
            </g>
        </g>
    </g>
</svg>
