<?xml version="1.0" encoding="UTF-8" standalone="no"?>
<!DOCTYPE svg PUBLIC "-//W3C//DTD SVG 1.1//EN" "http://www.w3.org/Graphics/SVG/1.1/DTD/svg11.dtd">
<svg width="100%" height="100%" viewBox="0 0 159 30" version="1.1" xmlns="http://www.w3.org/2000/svg" xmlns:xlink="http://www.w3.org/1999/xlink" xml:space="preserve" xmlns:serif="http://www.serif.com/" style="fill-rule:evenodd;clip-rule:evenodd;stroke-linejoin:round;stroke-miterlimit:2;">
    <g transform="matrix(0.0714267,0,0,0.0714267,-16.8725,-23.9701)">
        <g transform="matrix(2.82836,0,0,2.82836,83.4893,-1104.02)">
            <path d="M166.874,544.755C148.99,544.755 139.473,563.755 129.397,583.872C124.107,594.423 118.641,605.341 111.708,613.637C103.341,623.665 93.923,628.532 82.929,628.532C71.932,628.532 62.517,623.665 54.147,613.637C54.096,613.583 54.048,613.516 54,613.454L54,654.989L162,654.989L198,618.989L198,571.524C189.912,556.626 181.005,544.755 166.874,544.755Z" style="fill-rule:nonzero;"/>
        </g>
        <g transform="matrix(2.82836,0,0,2.82836,83.4893,-1104.02)">
            <path d="M82.929,618.481C100.811,618.481 110.331,599.481 120.406,579.372C125.695,568.813 131.163,557.903 138.094,549.598C146.464,539.575 155.878,534.708 166.874,534.708C177.873,534.708 187.287,539.575 195.655,549.598C196.457,550.559 197.236,551.555 198,552.583L198,510.989L90,510.989L54,546.989L54,595.641C61.527,608.649 70.064,618.481 82.929,618.481Z" style="fill-rule:nonzero;"/>
        </g>
        <g transform="matrix(2.82836,0,0,2.82836,83.4893,-1104.02)">
            <path d="M325.209,646.216C315.732,653.524 303.172,657.493 287.967,657.493C261.302,657.493 246.097,641.204 238.824,633.266L251.386,619.692C259.099,629.509 273.422,640.368 289.95,640.368C306.478,640.368 319.699,631.387 319.699,616.141C319.699,601.102 302.731,595.255 295.019,592.329C287.085,589.407 276.508,585.438 270.777,582.723C267.473,581.259 261.082,578.126 255.572,572.489C250.063,567.055 245.656,559.122 245.656,547.423C245.656,535.727 251.386,526.122 259.539,519.645C267.913,512.962 279.813,508.993 294.577,508.993C319.479,508.993 334.023,523.403 338.21,527.583L326.972,541.368C319.479,533.848 308.461,525.911 293.476,525.911C278.49,525.911 267.031,532.594 267.031,545.962C267.031,559.329 277.389,564.341 286.645,567.891L314.631,578.962C317.496,580.216 326.751,585.02 331.819,590.657C336.668,596.298 341.075,604.024 341.075,614.887C341.075,627.419 335.125,638.489 325.209,646.216Z" style="fill-rule:nonzero;"/>
        </g>
        <g transform="matrix(2.82836,0,0,2.82836,83.4893,-1104.02)">
            <path d="M436.714,600.473L410.049,535.727L383.385,600.473L436.714,600.473ZM482.109,654.989L458.31,654.989L442.663,617.391L377.435,617.391L361.789,654.989L339.312,654.989L401.234,510.454L419.966,510.454L482.109,654.989Z" style="fill-rule:nonzero;"/>
        </g>
        <g transform="matrix(2.82836,0,0,2.82836,83.4893,-1104.02)">
            <path d="M569.594,654.989L494.669,654.989L494.669,510.872L516.044,510.872L516.044,637.653L569.594,637.653L569.594,654.989Z" style="fill-rule:nonzero;"/>
        </g>
        <g transform="matrix(2.82836,0,0,2.82836,83.4893,-1104.02)">
            <path d="M683.965,510.872L627.99,655.196L609.039,655.196L553.066,510.872L575.984,510.872L618.736,625.747L661.486,510.872L683.965,510.872Z" style="fill-rule:nonzero;"/>
        </g>
        <g transform="matrix(2.82836,0,0,2.82836,83.4893,-1104.02)">
            <rect x="698.949" y="510.872" width="21.375" height="144.117" style="fill-rule:nonzero;"/>
        </g>
        <g transform="matrix(2.82836,0,0,2.82836,83.4893,-1104.02)">
            <path d="M821.25,646.216C811.773,653.524 799.213,657.493 784.008,657.493C757.344,657.493 742.137,641.204 734.865,633.266L747.426,619.692C755.139,629.509 769.463,640.368 785.99,640.368C802.518,640.368 815.74,631.387 815.74,616.141C815.74,601.102 798.771,595.255 791.059,592.329C783.127,589.407 772.549,585.438 766.818,582.723C763.514,581.259 757.123,578.126 751.613,572.489C746.104,567.055 741.697,559.122 741.697,547.423C741.697,535.727 747.426,526.122 755.58,519.645C763.953,512.962 775.854,508.993 790.619,508.993C815.52,508.993 830.064,523.403 834.252,527.583L823.012,541.368C815.52,533.848 804.502,525.911 789.518,525.911C774.531,525.911 763.072,532.594 763.072,545.962C763.072,559.329 773.43,564.341 782.686,567.891L810.672,578.962C813.537,580.216 822.793,585.02 827.861,590.657C832.709,596.298 837.115,604.024 837.115,614.887C837.115,627.419 831.166,638.489 821.25,646.216Z" style="fill-rule:nonzero;"/>
        </g>
    </g>
</svg>
