<?xml version="1.0" encoding="UTF-8" standalone="no"?><!DOCTYPE svg PUBLIC "-//W3C//DTD SVG 1.1//EN" "http://www.w3.org/Graphics/SVG/1.1/DTD/svg11.dtd"><svg width="100%" height="100%" viewBox="0 0 512 512" version="1.1" xmlns="http://www.w3.org/2000/svg" xmlns:xlink="http://www.w3.org/1999/xlink" xml:space="preserve" xmlns:serif="http://www.serif.com/" style="fill-rule:evenodd;clip-rule:evenodd;stroke-linejoin:round;stroke-miterlimit:2;"><rect id="Artboard4" x="0" y="0" width="512" height="512" style="fill:none;"/><clipPath id="_clip1"><rect x="0" y="0" width="512" height="512"/></clipPath><g clip-path="url(#_clip1)"><g><path d="M264.349,4.927c0,-2.719 2.208,-4.927 4.927,-4.927c2.719,-0 4.927,2.208 4.927,4.927l-0,251.073c-0,2.719 -2.208,4.927 -4.927,4.927c-2.719,-0 -4.927,-2.208 -4.927,-4.927l0,-251.073Z"/><path d="M218.528,9.64c-0.496,-2.673 1.272,-5.247 3.945,-5.743c2.674,-0.496 5.247,1.271 5.743,3.945l45.904,247.259c0.496,2.673 -1.271,5.247 -3.945,5.743c-2.673,0.496 -5.247,-1.271 -5.743,-3.945l-45.904,-247.259Z"/><path d="M174.263,21.831c-0.973,-2.539 0.298,-5.39 2.837,-6.363c2.539,-0.973 5.391,0.298 6.364,2.837l90.413,235.932c0.973,2.539 -0.299,5.391 -2.838,6.364c-2.539,0.973 -5.39,-0.299 -6.363,-2.838l-90.413,-235.932Z"/><path d="M132.891,41.123c-1.412,-2.323 -0.672,-5.356 1.651,-6.769c2.324,-1.412 5.357,-0.672 6.769,1.651l132.175,217.436c1.413,2.323 0.673,5.357 -1.651,6.769c-2.323,1.412 -5.356,0.673 -6.769,-1.651l-132.175,-217.436Z"/><path d="M95.663,66.929c-1.8,-2.038 -1.607,-5.154 0.431,-6.954c2.037,-1.801 5.154,-1.608 6.954,0.43l169.92,192.333c1.801,2.038 1.608,5.154 -0.43,6.954c-2.038,1.801 -5.154,1.608 -6.954,-0.43l-169.921,-192.333Z"/><path d="M63.702,98.466c-2.126,-1.695 -2.477,-4.797 -0.782,-6.923c1.695,-2.127 4.797,-2.477 6.923,-0.783l202.504,161.387c2.126,1.695 2.477,4.797 0.782,6.924c-1.695,2.126 -4.797,2.477 -6.923,0.782l-202.504,-161.387Z"/><path d="M37.974,134.783c-2.384,-1.307 -3.258,-4.304 -1.951,-6.688c1.307,-2.385 4.305,-3.259 6.689,-1.952l228.933,125.537c2.384,1.307 3.258,4.305 1.951,6.689c-1.307,2.384 -4.304,3.258 -6.689,1.951l-228.933,-125.537Z"/><path d="M19.259,174.784c-2.57,-0.888 -3.935,-3.696 -3.046,-6.266c0.888,-2.57 3.696,-3.935 6.266,-3.047l248.407,85.873c2.57,0.888 3.935,3.696 3.047,6.266c-0.889,2.57 -3.697,3.935 -6.267,3.046l-248.407,-85.872Z"/><path d="M8.129,217.261c-2.682,-0.449 -4.494,-2.991 -4.045,-5.673c0.449,-2.682 2.991,-4.495 5.673,-4.046l260.333,43.599c2.682,0.449 4.494,2.991 4.045,5.673c-0.449,2.682 -2.991,4.494 -5.673,4.045l-260.333,-43.598Z"/><path d="M4.927,260.927c-2.719,-0 -4.927,-2.208 -4.927,-4.927c0,-2.719 2.208,-4.927 4.927,-4.927l264.349,0c2.719,0 4.927,2.208 4.927,4.927c-0,2.719 -2.208,4.927 -4.927,4.927l-264.349,-0Z"/><path d="M9.757,304.458c-2.682,0.449 -5.224,-1.364 -5.673,-4.046c-0.449,-2.682 1.363,-5.224 4.045,-5.673l260.333,-43.598c2.682,-0.449 5.224,1.363 5.673,4.045c0.449,2.682 -1.363,5.224 -4.045,5.673l-260.333,43.599Z"/><path d="M22.479,346.529c-2.57,0.888 -5.378,-0.477 -6.266,-3.047c-0.889,-2.57 0.476,-5.378 3.046,-6.266l248.407,-85.872c2.57,-0.889 5.378,0.476 6.267,3.046c0.888,2.57 -0.477,5.378 -3.047,6.266l-248.407,85.873Z"/><path d="M42.712,385.857c-2.384,1.307 -5.382,0.433 -6.689,-1.952c-1.307,-2.384 -0.433,-5.381 1.951,-6.688l228.933,-125.537c2.385,-1.307 5.382,-0.433 6.689,1.951c1.307,2.384 0.433,5.382 -1.951,6.689l-228.933,125.537Z"/><path d="M69.843,421.24c-2.126,1.694 -5.228,1.344 -6.923,-0.783c-1.695,-2.126 -1.344,-5.228 0.782,-6.923l202.504,-161.387c2.126,-1.695 5.228,-1.344 6.923,0.782c1.695,2.127 1.344,5.229 -0.782,6.924l-202.504,161.387Z"/><path d="M103.048,451.595c-1.8,2.038 -4.917,2.231 -6.954,0.43c-2.038,-1.8 -2.231,-4.916 -0.431,-6.954l169.921,-192.333c1.8,-2.038 4.916,-2.231 6.954,-0.43c2.038,1.8 2.231,4.916 0.43,6.954l-169.92,192.333Z"/><path d="M141.311,475.995c-1.412,2.323 -4.445,3.063 -6.769,1.651c-2.323,-1.413 -3.063,-4.446 -1.651,-6.769l132.175,-217.436c1.413,-2.324 4.446,-3.063 6.769,-1.651c2.324,1.412 3.064,4.446 1.651,6.769l-132.175,217.436Z"/><path d="M183.464,493.695c-0.973,2.539 -3.825,3.81 -6.364,2.837c-2.539,-0.973 -3.81,-3.824 -2.837,-6.363l90.413,-235.932c0.973,-2.539 3.824,-3.811 6.363,-2.838c2.539,0.973 3.811,3.825 2.838,6.364l-90.413,235.932Z"/><path d="M228.216,504.158c-0.496,2.674 -3.069,4.441 -5.743,3.945c-2.673,-0.496 -4.441,-3.07 -3.945,-5.743l45.904,-247.259c0.496,-2.674 3.07,-4.441 5.743,-3.945c2.674,0.496 4.441,3.07 3.945,5.743l-45.904,247.259Z"/><path d="M274.203,507.073c-0,2.719 -2.208,4.927 -4.927,4.927c-2.719,-0 -4.927,-2.208 -4.927,-4.927l0,-251.073c0,-2.719 2.208,-4.927 4.927,-4.927c2.719,0 4.927,2.208 4.927,4.927l-0,251.073Z"/></g></g></svg>