<?xml version="1.0" encoding="UTF-8" standalone="no"?>
<!DOCTYPE svg PUBLIC "-//W3C//DTD SVG 1.1//EN" "http://www.w3.org/Graphics/SVG/1.1/DTD/svg11.dtd">
<svg width="100%" height="100%" viewBox="0 0 160 20" version="1.1" xmlns="http://www.w3.org/2000/svg" xmlns:xlink="http://www.w3.org/1999/xlink" xml:space="preserve" xmlns:serif="http://www.serif.com/" style="fill-rule:evenodd;clip-rule:evenodd;stroke-linejoin:round;stroke-miterlimit:2;">
    <g id="CONTERA_bez_claimu_RGB_pozitiv" transform="matrix(1,0,0,1,-34.77,-33.5)">
        <g id="Group_669">
            <g id="CONTERA_bez_claimu_RGB_pozitiv1" serif:id="CONTERA_bez_claimu_RGB_pozitiv">
                <path id="Path_32" d="M50.122,46.4C49.044,48.234 47.068,49.362 44.941,49.359C41.753,49.313 39.156,46.679 39.156,43.491C39.156,40.271 41.805,37.622 45.025,37.622C47.129,37.622 49.079,38.753 50.122,40.581L53.012,37.439C51.076,34.949 48.09,33.492 44.935,33.5C44.877,33.499 44.82,33.498 44.762,33.498C39.286,33.498 34.78,38.005 34.78,43.48C34.78,48.956 39.286,53.462 44.762,53.462C44.82,53.462 44.877,53.462 44.935,53.461C48.088,53.468 51.074,52.013 53.012,49.526L50.122,46.4Z" style="fill-rule:nonzero;"/>
                <g id="Path_33" transform="matrix(1,0,0,1,-38.41,-0.406)">
                    <path d="M136.394,34.41L140.565,34.41L140.565,53.51L136.565,53.51L127.145,41.235L127.145,53.507L122.95,53.507L122.95,34.41L126.95,34.41L136.4,46.74L136.4,34.41L136.394,34.41Z" style="fill-rule:nonzero;"/>
                </g>
                <g id="Path_34" transform="matrix(1,0,0,1,-56.509,-0.406)">
                    <path d="M164.5,34.41L180.755,34.41L180.755,38.068L174.806,38.068L174.806,53.507L170.415,53.507L170.415,38.068L164.5,38.068L164.5,34.41Z" style="fill-rule:nonzero;"/>
                </g>
                <g id="Path_35" transform="matrix(1,0,0,1,-73.557,-0.406)">
                    <path d="M203.64,34.41L218.45,34.41L218.45,37.984L208.031,37.984L208.031,42.13L217.395,42.13L217.395,45.7L208.031,45.7L208.031,49.928L218.755,49.928L218.755,53.502L203.64,53.502L203.64,34.41Z" style="fill-rule:nonzero;"/>
                </g>
                <g id="Path_36" transform="matrix(1,0,0,1,-90.563,-0.406)">
                    <path d="M254.629,53.507L251.547,48.048L247.071,48.048L247.071,53.507L242.68,53.507L242.68,34.41L251.129,34.41C253.236,34.275 255.324,34.89 257.022,36.145C258.44,37.364 259.211,39.178 259.105,41.045C259.143,42.366 258.822,43.672 258.174,44.824C257.54,45.881 256.593,46.716 255.465,47.212L259.608,53.512L254.63,53.512L254.629,53.507ZM247.071,44.452L251.129,44.452C252.138,44.518 253.139,44.224 253.951,43.621C254.636,43.001 255,42.099 254.939,41.177C255.002,40.271 254.636,39.386 253.951,38.789C253.131,38.204 252.134,37.922 251.129,37.989L247.071,37.989L247.071,44.452Z" style="fill-rule:nonzero;"/>
                </g>
                <g id="Path_37" transform="matrix(1,0,0,1,-107.054,-0.406)">
                    <path d="M297.128,53.507L295.598,49.794L286.598,49.794L285.068,53.507L280.54,53.507L288.989,34.407L293.516,34.407L301.824,53.507L297.128,53.507ZM288.041,46.336L294.182,46.336L291.123,38.916L288.041,46.336Z" style="fill-rule:nonzero;"/>
                </g>
                <g id="Group_31" transform="matrix(1,0,0,1,58.075,33.544)">
                    <g id="Path_38" transform="matrix(1,0,0,1,-80.372,-33.58)">
                        <path d="M88.528,38.041C89.175,37.812 89.856,37.694 90.543,37.692C93.791,37.666 96.487,40.313 96.52,43.561C96.518,44.808 96.112,46.022 95.363,47.019L97.937,50.399C99.713,48.566 100.71,46.113 100.714,43.561C100.665,38.07 96.134,33.58 90.642,33.58C90.611,33.58 90.58,33.58 90.549,33.58C88.956,33.578 87.384,33.95 85.96,34.666L88.528,38.041Z" style="fill-rule:nonzero;"/>
                    </g>
                    <g id="Path_39" transform="matrix(1,0,0,1,-76.06,-36.086)">
                        <path d="M88.268,51.569C87.614,51.805 86.925,51.927 86.23,51.929C82.982,51.955 80.286,49.308 80.253,46.06C80.255,44.803 80.667,43.581 81.427,42.58L78.854,39.2C77.066,41.036 76.063,43.498 76.06,46.061C76.109,51.552 80.64,56.042 86.132,56.042C86.163,56.042 86.194,56.042 86.225,56.042C87.826,56.043 89.405,55.669 90.836,54.95L88.268,51.569Z" style="fill-rule:nonzero;"/>
                    </g>
                </g>
            </g>
        </g>
    </g>
</svg>
