<?xml version="1.0" encoding="UTF-8" standalone="no"?>
<!DOCTYPE svg PUBLIC "-//W3C//DTD SVG 1.1//EN" "http://www.w3.org/Graphics/SVG/1.1/DTD/svg11.dtd">
<svg viewBox="0 0 70 24" version="1.1" xmlns="http://www.w3.org/2000/svg" xmlns:xlink="http://www.w3.org/1999/xlink" xml:space="preserve" xmlns:serif="http://www.serif.com/" style="fill-rule:evenodd;clip-rule:evenodd;stroke-linejoin:round;stroke-miterlimit:2;">
    <path id="Path_27" d="M47.9,23.6L45.2,23.6L42.5,16.2L40,16.2L40,23.6L37.5,23.6L37.5,13.7L43.1,13.7C43.5,13.7 43.8,13.7 44.2,13.6L47.9,23.6ZM48.4,14.2L51.8,23.6L49.1,23.6L45.3,13.2C48.1,12 49.4,8.7 48.2,5.9C47.3,3.8 45.3,2.5 43,2.5L36.1,2.5L36.1,23.6L33.6,23.6L33.6,0L43,0C47.5,0 51.1,3.6 51.1,8.1C51.1,10.5 50.1,12.7 48.3,14.2M19.4,23.6L19.4,6.2L13.8,6.2L13.8,3.7L21.9,3.7L21.9,23.5L19.4,23.5L19.4,23.6ZM0,17.4L5,17.4L5,0L7.5,0L7.5,18.6C7.5,19.3 6.9,19.8 6.3,19.8L0,19.8L0,17.3L0,17.4ZM11.2,0L11.2,18.6C11.2,21.3 9,23.6 6.2,23.6L0,23.6L0,21.1L6.2,21.1C7.6,21.1 8.7,20 8.7,18.6L8.7,0L11.2,0ZM57.5,21.1L70,21.1L70,23.6L57.5,23.6C56.1,23.6 55,22.5 55,21.1L55,2.5C55,1.1 56.1,0 57.5,0L70,0L70,2.5L57.5,2.5L57.5,21.1ZM31.2,3.7L31.2,6.2L25.6,6.2L25.6,23.6L23.1,23.6L23.1,3.7L31.2,3.7ZM13.7,0L31.2,0L31.2,2.5L13.7,2.5L13.7,0ZM61.2,17.3L69.9,17.3L69.9,19.8L58.7,19.8L58.7,12.4L69.9,12.4L69.9,14.9L61.2,14.9L61.2,17.4L61.2,17.3ZM58.7,3.7L69.9,3.7L69.9,6.2L61.2,6.2L61.2,8.7L69.9,8.7L69.9,11.2L58.7,11.2L58.7,3.7ZM40,9.9L43.1,9.9C44.1,9.9 45,9.1 45,8C45,6.9 44.2,6.1 43.1,6.1L40,6.1L40,9.9ZM37.5,12.4L37.5,3.7L43.1,3.7C45.5,3.7 47.4,5.6 47.4,8C47.4,10.4 45.5,12.3 43.1,12.3L37.5,12.3L37.5,12.4Z" style="fill-rule:nonzero;"/>
</svg>
