<?xml version="1.0" encoding="UTF-8" standalone="no"?>
<!DOCTYPE svg PUBLIC "-//W3C//DTD SVG 1.1//EN" "http://www.w3.org/Graphics/SVG/1.1/DTD/svg11.dtd">
<svg width="100%" height="100%" viewBox="0 0 108 40" version="1.1" xmlns="http://www.w3.org/2000/svg" xmlns:xlink="http://www.w3.org/1999/xlink" xml:space="preserve" xmlns:serif="http://www.serif.com/" style="fill-rule:evenodd;clip-rule:evenodd;stroke-linejoin:round;stroke-miterlimit:2;">
    <path d="M0,30.882L0,29.221L6.348,29.221L6.348,30.882L4.115,30.882L4.115,36.734L2.233,36.734L2.233,30.882L0,30.882Z" style="fill-rule:nonzero;"/>
    <path d="M7.119,36.734L7.119,28.135L8.914,28.135L8.914,31.15C9.33,30.986 9.774,30.908 10.221,30.919C10.513,30.915 10.803,30.956 11.082,31.039C11.336,31.119 11.572,31.25 11.775,31.422C11.997,31.619 12.164,31.87 12.259,32.15C12.382,32.507 12.441,32.882 12.432,33.259L12.432,36.734L10.629,36.734L10.629,33.333C10.629,32.794 10.359,32.524 9.82,32.524C9.513,32.514 9.207,32.556 8.914,32.647L8.914,36.739L7.119,36.734Z" style="fill-rule:nonzero;"/>
    <path d="M13.543,29.339C13.543,29.065 13.652,28.803 13.845,28.61C14.038,28.416 14.3,28.308 14.573,28.308C14.846,28.308 15.108,28.416 15.301,28.61C15.494,28.803 15.602,29.065 15.602,29.339C15.599,29.609 15.49,29.868 15.299,30.059C15.108,30.25 14.85,30.359 14.579,30.363C14.444,30.365 14.309,30.339 14.183,30.288C14.058,30.237 13.944,30.16 13.849,30.063C13.75,29.97 13.672,29.858 13.62,29.733C13.567,29.608 13.541,29.474 13.543,29.339ZM13.685,36.734L13.685,31.042L15.48,31.042L15.48,36.734L13.685,36.734Z" style="fill-rule:nonzero;"/>
    <path d="M16.826,36.734L16.826,31.446C17.276,31.274 17.74,31.145 18.214,31.061C18.69,30.968 19.173,30.92 19.657,30.916C20.46,30.916 21.071,31.093 21.496,31.446C21.921,31.799 22.131,32.404 22.131,33.255L22.131,36.734L20.337,36.734L20.337,33.333C20.337,32.794 20.068,32.524 19.529,32.524C19.221,32.519 18.914,32.567 18.622,32.666L18.622,36.734L16.826,36.734Z" style="fill-rule:nonzero;"/>
    <path d="M23.391,36.734L23.391,28.135L25.185,28.135L25.185,36.734L23.391,36.734ZM25.247,33.647L27.129,31.042L29.213,31.042L27.215,33.627L29.259,36.738L27.233,36.738L25.247,33.647Z" style="fill-rule:nonzero;"/>
    <path d="M29.698,29.339C29.693,29.2 29.717,29.063 29.767,28.933C29.816,28.805 29.891,28.687 29.988,28.587C30.084,28.488 30.199,28.409 30.326,28.355C30.453,28.301 30.59,28.273 30.728,28.273C30.866,28.273 31.003,28.301 31.13,28.355C31.257,28.409 31.372,28.488 31.469,28.587C31.565,28.687 31.64,28.805 31.69,28.933C31.74,29.063 31.763,29.2 31.758,29.339C31.76,29.473 31.734,29.607 31.681,29.731C31.629,29.855 31.551,29.967 31.454,30.06C31.361,30.157 31.249,30.233 31.125,30.285C31.001,30.337 30.868,30.364 30.734,30.363C30.598,30.365 30.464,30.339 30.338,30.288C30.212,30.236 30.099,30.16 30.003,30.063C29.905,29.97 29.827,29.858 29.775,29.733C29.722,29.608 29.696,29.474 29.698,29.339ZM29.84,36.734L29.84,31.042L31.635,31.042L31.635,36.734L29.84,36.734Z" style="fill-rule:nonzero;"/>
    <path d="M32.984,36.734L32.984,31.446C33.434,31.274 33.898,31.145 34.371,31.061C34.847,30.968 35.33,30.92 35.814,30.916C36.617,30.916 37.23,31.093 37.653,31.446C38.076,31.799 38.288,32.402 38.288,33.255L38.288,36.734L36.493,36.734L36.493,33.333C36.493,32.794 36.224,32.524 35.685,32.524C35.377,32.52 35.07,32.568 34.778,32.666L34.778,36.734L32.984,36.734Z" style="fill-rule:nonzero;"/>
    <path d="M39.908,35.904C39.389,35.407 39.13,34.712 39.131,33.82C39.132,32.927 39.414,32.221 39.979,31.699C40.544,31.179 41.318,30.919 42.301,30.92C43.145,30.914 43.982,31.07 44.768,31.379L44.768,36.593C44.774,36.947 44.711,37.3 44.583,37.63C44.478,37.906 44.316,38.156 44.107,38.364C43.906,38.555 43.673,38.709 43.42,38.821C43.17,38.935 42.907,39.018 42.637,39.068C42.373,39.113 42.106,39.136 41.838,39.135C41.143,39.139 40.456,38.989 39.827,38.694L39.827,37.046C40.142,37.242 40.479,37.398 40.832,37.511C41.159,37.605 41.498,37.65 41.838,37.646C42.139,37.661 42.434,37.562 42.664,37.369C42.77,37.271 42.852,37.15 42.905,37.017C42.958,36.883 42.982,36.739 42.973,36.595L42.973,36.47C42.743,36.59 42.405,36.65 41.962,36.65C41.111,36.648 40.426,36.4 39.908,35.904ZM40.95,33.815C40.95,34.23 41.065,34.556 41.295,34.793C41.413,34.912 41.555,35.006 41.711,35.067C41.867,35.128 42.034,35.157 42.202,35.15C42.465,35.143 42.725,35.094 42.973,35.008L42.973,32.586C42.757,32.514 42.529,32.48 42.301,32.487C41.877,32.487 41.546,32.597 41.308,32.819C41.07,33.041 40.95,33.373 40.95,33.815Z" style="fill-rule:nonzero;"/>
    <path d="M47.936,35.08C47.936,34.492 48.151,34.053 48.581,33.765C49.012,33.476 49.626,33.332 50.423,33.334L51.027,33.334L51.027,33.107C51.033,33.006 51.012,32.906 50.965,32.818C50.918,32.729 50.847,32.655 50.761,32.604C50.548,32.489 50.309,32.434 50.067,32.444C49.493,32.441 48.929,32.601 48.441,32.904L48.441,31.396C48.975,31.082 49.626,30.925 50.395,30.926C51.998,30.926 52.799,31.629 52.798,33.036L52.798,36.615C52.033,36.783 51.252,36.866 50.469,36.863C48.78,36.859 47.936,36.265 47.936,35.08ZM49.706,34.987C49.7,35.07 49.715,35.154 49.749,35.23C49.783,35.306 49.835,35.373 49.9,35.425C50.059,35.532 50.248,35.583 50.438,35.573C50.634,35.574 50.829,35.556 51.021,35.518L51.021,34.418L50.544,34.418C49.985,34.418 49.706,34.608 49.706,34.987Z" style="fill-rule:nonzero;"/>
    <path d="M54.031,36.734L54.031,28.135L55.826,28.135L55.826,31.15C56.24,30.988 56.683,30.911 57.128,30.923C57.419,30.919 57.71,30.959 57.989,31.042C58.243,31.122 58.479,31.253 58.683,31.426C58.905,31.622 59.072,31.873 59.167,32.154C59.29,32.51 59.348,32.885 59.34,33.262L59.34,36.734L57.54,36.734L57.54,33.333C57.54,32.794 57.271,32.524 56.732,32.524C56.425,32.514 56.119,32.556 55.826,32.647L55.826,36.739L54.031,36.734Z" style="fill-rule:nonzero;"/>
    <path d="M60.176,33.98C60.176,33.038 60.437,32.292 60.959,31.742C61.481,31.192 62.156,30.918 62.982,30.92C63.384,30.91 63.784,30.983 64.157,31.135C64.467,31.262 64.735,31.473 64.934,31.742C65.121,32.004 65.259,32.298 65.341,32.61C65.429,32.957 65.472,33.314 65.468,33.672L65.468,34.444L61.909,34.444L61.909,34.468C61.947,34.61 62.015,34.741 62.11,34.853C62.205,34.965 62.323,35.054 62.457,35.114C62.763,35.262 63.099,35.335 63.438,35.33C64.093,35.333 64.739,35.176 65.32,34.873L65.32,36.355C64.818,36.687 64.123,36.854 63.235,36.855C62.285,36.855 61.538,36.595 60.993,36.077C60.449,35.559 60.176,34.86 60.176,33.98ZM61.921,33.432L63.827,33.432C63.836,33.171 63.761,32.915 63.611,32.701C63.469,32.508 63.246,32.412 62.942,32.412C62.815,32.408 62.688,32.43 62.57,32.477C62.452,32.525 62.345,32.597 62.257,32.688C62.071,32.895 61.953,33.155 61.921,33.432Z" style="fill-rule:nonzero;"/>
    <path d="M66.166,35.08C66.166,34.492 66.381,34.053 66.812,33.765C67.242,33.476 67.856,33.332 68.653,33.334L69.257,33.334L69.257,33.107C69.263,33.006 69.242,32.906 69.195,32.817C69.148,32.729 69.077,32.655 68.991,32.604C68.777,32.489 68.537,32.434 68.295,32.444C67.721,32.442 67.158,32.601 66.671,32.904L66.671,31.396C67.206,31.082 67.857,30.925 68.625,30.926C70.226,30.926 71.026,31.629 71.026,33.037L71.026,36.615C70.262,36.783 69.481,36.866 68.699,36.863C67.01,36.859 66.166,36.265 66.166,35.08ZM67.936,34.987C67.931,35.07 67.946,35.154 67.98,35.23C68.014,35.307 68.066,35.373 68.132,35.425C68.29,35.532 68.479,35.583 68.67,35.573C68.866,35.574 69.061,35.556 69.253,35.518L69.253,34.418L68.775,34.418C68.217,34.418 67.937,34.608 67.936,34.987Z" style="fill-rule:nonzero;"/>
    <path d="M71.842,33.9C71.842,33.011 72.109,32.293 72.643,31.747C73.178,31.2 73.895,30.926 74.795,30.924C75.133,30.91 75.47,30.96 75.789,31.071L75.789,28.135L77.579,28.135L77.579,36.567C76.771,36.772 75.938,36.87 75.104,36.858C74.1,36.858 73.305,36.6 72.72,36.085C72.135,35.571 71.842,34.842 71.842,33.9ZM73.661,33.839C73.661,34.316 73.793,34.684 74.055,34.944C74.318,35.204 74.688,35.333 75.166,35.333C75.373,35.332 75.579,35.314 75.783,35.278L75.783,32.647C75.521,32.531 75.237,32.476 74.95,32.486C74.777,32.477 74.603,32.504 74.441,32.566C74.278,32.628 74.13,32.724 74.007,32.846C73.776,33.088 73.661,33.419 73.661,33.839Z" style="fill-rule:nonzero;"/>
    <path d="M0.229,0L5.767,0L5.767,16.553C5.767,17.953 6.547,18.74 7.951,18.74C8.615,18.74 9.278,18.661 9.862,18.426L9.862,23.072C8.918,23.442 7.912,23.628 6.898,23.619C2.413,23.619 0.227,21.277 0.227,16.747L0.229,0ZM11.93,5.856L17.468,5.856L17.468,16.357C17.468,18.036 18.329,18.856 20.158,18.856C20.911,18.859 21.659,18.754 22.381,18.544L22.381,5.856L27.92,5.856L27.92,22.253C25.66,23.267 22.615,23.814 20.158,23.814C14.814,23.814 11.928,21.863 11.928,16.591L11.93,5.856ZM40.403,5.465C42.238,5.465 43.797,5.778 45.124,6.442L45.124,11.631C43.953,10.769 42.666,10.339 41.067,10.339C38.336,10.339 36.425,12.055 36.425,14.632C36.425,17.209 38.336,18.927 41.067,18.927C42.666,18.927 43.953,18.496 45.124,17.635L45.124,22.828C43.797,23.491 42.238,23.803 40.403,23.803C34.553,23.803 30.77,20.133 30.77,14.629C30.77,9.125 34.553,5.465 40.403,5.465ZM48.205,6.597C50.077,5.856 52.379,5.465 54.992,5.465C56.302,5.454 57.61,5.585 58.892,5.856L58.892,10.662C57.187,10.388 55.449,10.388 53.744,10.662L53.744,23.424L48.205,23.424L48.205,6.597ZM59.712,14.64C59.712,9.136 63.612,5.465 69.034,5.465C74.456,5.465 78.356,9.136 78.356,14.64C78.356,20.144 74.46,23.814 69.034,23.814C63.607,23.814 59.712,20.144 59.712,14.64ZM69.034,18.935C71.258,18.935 72.779,17.294 72.779,14.64C72.779,11.985 71.258,10.346 69.034,10.346C66.81,10.346 65.29,11.985 65.29,14.64C65.29,17.294 66.811,18.935 69.034,18.935ZM81.008,7.028C83.31,6.011 86.43,5.465 88.965,5.465C94.426,5.465 97.391,7.418 97.391,12.688L97.391,23.424L91.852,23.424L91.852,12.923C91.852,11.244 90.916,10.425 88.965,10.425C88.146,10.412 87.33,10.531 86.548,10.776L86.548,23.424L81.008,23.424L81.008,7.028ZM103.787,16.124C105.933,16.124 107.493,17.685 107.493,19.831C107.493,21.978 105.933,23.541 103.787,23.541C101.642,23.541 100.083,21.979 100.083,19.831C100.083,17.684 101.643,16.124 103.787,16.124Z" style="fill-rule:nonzero;"/>
</svg>
