<?xml version="1.0" encoding="UTF-8" standalone="no"?>
<!DOCTYPE svg PUBLIC "-//W3C//DTD SVG 1.1//EN" "http://www.w3.org/Graphics/SVG/1.1/DTD/svg11.dtd">
<svg width="100%" height="100%" viewBox="0 0 601 67" version="1.1" xmlns="http://www.w3.org/2000/svg" xmlns:xlink="http://www.w3.org/1999/xlink" xml:space="preserve" xmlns:serif="http://www.serif.com/" style="fill-rule:evenodd;clip-rule:evenodd;stroke-linejoin:round;stroke-miterlimit:2;">
    <g transform="matrix(1,0,0,1,126.1,-246.5)">
        <path d="M-87.9,264.3L-87.9,306.8L-120.8,306.8L-120.8,264.3L-126.1,264.3L-126.1,312.3L-82.7,312.3L-82.7,264.3L-87.9,264.3Z" style="fill-rule:nonzero;"/>
    </g>
    <g transform="matrix(1,0,0,1,126.1,-246.5)">
        <path d="M-45.2,282.7C-45.2,272.7 -45.2,271 -45.3,268.9C-45.4,266.7 -45.9,265.7 -47.9,265.3C-48.4,265.2 -49.4,265.1 -50,265.1C-50.2,265.1 -50.5,265 -50.5,264.7C-50.5,264.3 -50.2,264.2 -49.5,264.2C-46.8,264.2 -43.1,264.4 -42.6,264.4C-41.3,264.4 -37.7,264.2 -34.9,264.2C-27.3,264.2 -24.5,266.9 -23.6,267.8C-22.3,269.1 -20.6,272 -20.6,275.4C-20.6,284.5 -26.9,290.6 -35.6,290.6C-35.9,290.6 -36.6,290.6 -36.9,290.5C-37.2,290.5 -37.6,290.4 -37.6,290.1C-37.6,289.6 -37.2,289.5 -36,289.5C-30.1,289.5 -25.4,285 -25.4,279.1C-25.4,277 -25.6,272.7 -28.8,269.3C-32,265.9 -35.8,266.1 -37.2,266.1C-38.2,266.1 -39.3,266.2 -39.8,266.5C-40.2,266.6 -40.3,267.1 -40.3,267.7L-40.3,293.9C-40.3,300 -40.3,305.1 -40,307.8C-39.8,309.7 -39.5,311.1 -37.6,311.3C-36.7,311.4 -35.4,311.6 -34.9,311.6C-34.5,311.6 -34.4,311.8 -34.4,312C-34.4,312.3 -34.7,312.5 -35.4,312.5C-38.8,312.5 -42.6,312.3 -42.9,312.3C-43.1,312.3 -46.9,312.5 -48.8,312.5C-49.5,312.5 -49.8,312.4 -49.8,312C-49.8,311.8 -49.7,311.6 -49.3,311.6C-48.8,311.6 -48,311.5 -47.5,311.3C-46.3,311 -46,309.6 -45.7,307.8C-45.4,305.1 -45.4,300.1 -45.4,293.9L-45.4,282.7L-45.2,282.7ZM6.4,306.4C5.5,309.2 4.4,311.3 2,311.6C1.6,311.7 0.8,311.7 0.5,311.7C0.2,311.7 0,311.8 0,312C0,312.3 0.3,312.4 1,312.4C3.5,312.4 6.4,312.2 7,312.2C7.6,312.2 9.8,312.4 11.1,312.4C11.6,312.4 11.9,312.3 11.9,312C11.9,311.8 11.7,311.7 11.4,311.7L10.9,311.7C10,311.7 8.9,311.2 8.9,310.1C8.9,309.1 9.2,307.8 9.6,306.4L12.8,296.6C12.9,296.3 13.1,296.2 13.3,296.2L24.6,296.2C24.9,296.2 25,296.3 25.1,296.5L30,310.1C30.3,311 30,311.5 29.7,311.6C29.5,311.7 29.3,311.8 29.3,312C29.3,312.3 29.9,312.3 30.9,312.4C34.5,312.5 38.4,312.5 39.2,312.5C39.8,312.5 40.3,312.4 40.3,312.1C40.3,311.8 40.1,311.8 39.8,311.8C39.3,311.8 38.5,311.7 37.7,311.5C36.6,311.2 35.1,310.3 33.2,305.4C30,297 21.7,274.3 20.9,272.2C20.3,270.5 20.1,270.2 19.7,270.2C19.4,270.2 19.2,270.5 18.5,272.4L6.4,306.4ZM13.8,294.2C13.6,294.2 13.5,294.1 13.6,293.8L18.2,278.9C18.5,278.1 18.7,278.1 19,278.9L24,293.8C24.1,294 24.1,294.2 23.8,294.2L13.8,294.2ZM68.4,278.5C70.1,280.5 76,287.4 82.1,294.3C87.7,300.6 95.3,308.7 95.8,309.2C98.6,312.1 99.2,312.7 99.6,312.7C100,312.7 100.1,312.4 100.1,308.8L100.2,276.5C100.2,273.2 100.4,272 102.1,271.6C102.7,271.4 103.1,271.4 103.4,271.4C103.8,271.4 104,271.2 104,271C104,270.7 103.6,270.6 103.1,270.6C100.9,270.6 99.2,270.8 98.6,270.8C98,270.8 95.5,270.6 93.1,270.6C92.5,270.6 92,270.7 92,271C92,271.2 92.1,271.4 92.4,271.4C92.8,271.4 94,271.5 95,271.7C96.6,272.1 97,273.4 97.1,276.9L97.7,304.9C96,303.1 90.3,296.4 85.1,290.5C77,281.4 69.1,272.5 68.4,271.6C67.9,271 67,269.8 66.6,269.8C66.2,269.8 66,270.4 66,272.6L65.9,304.2C65.9,309.2 65.6,310.8 64.3,311.2C63.5,311.5 62.6,311.5 62.1,311.5C61.8,311.5 61.7,311.6 61.7,311.8C61.7,312.2 62,312.2 62.5,312.2C64.9,312.2 67.1,312 67.6,312C68.1,312 70.2,312.2 73.2,312.2C73.8,312.2 74.1,312.1 74.1,311.8C74.1,311.6 73.9,311.5 73.7,311.5C73.2,311.5 72.1,311.4 71.1,311.2C69.7,310.8 69.2,309.3 69,304.8L68.4,278.5ZM133.2,306.4C132.3,309.2 131.2,311.3 128.8,311.6C128.4,311.7 127.6,311.7 127.3,311.7C127,311.7 126.8,311.8 126.8,312C126.8,312.3 127.1,312.4 127.8,312.4C130.3,312.4 133.2,312.2 133.8,312.2C134.4,312.2 136.6,312.4 137.9,312.4C138.4,312.4 138.7,312.3 138.7,312C138.7,311.8 138.5,311.7 138.2,311.7L137.7,311.7C136.8,311.7 135.7,311.2 135.7,310.1C135.7,309.1 136,307.8 136.4,306.4L139.6,296.6C139.7,296.3 139.9,296.2 140.1,296.2L151.4,296.2C151.7,296.2 151.8,296.3 151.9,296.5L156.8,310.1C157.1,311 156.8,311.5 156.5,311.6C156.3,311.7 156.1,311.8 156.1,312C156.1,312.3 156.7,312.3 157.7,312.4C161.3,312.5 165.2,312.5 166,312.5C166.6,312.5 167.1,312.4 167.1,312.1C167.1,311.8 166.9,311.8 166.6,311.8C166.1,311.8 165.3,311.7 164.5,311.5C163.4,311.2 161.9,310.3 160,305.4C156.8,297 148.5,274.3 147.7,272.2C147.1,270.5 146.9,270.2 146.5,270.2C146.2,270.2 146,270.5 145.3,272.4L133.2,306.4ZM140.6,294.2C140.4,294.2 140.3,294.1 140.4,293.8L145,278.9C145.3,278.1 145.5,278.1 145.8,278.9L150.8,293.8C150.9,294 150.9,294.2 150.6,294.2L140.6,294.2ZM203,273.1L209.6,273.2C214.7,273.3 215.9,274.6 216.1,276.2L216.2,276.8C216.3,277.6 216.4,277.7 216.6,277.7C216.8,277.7 217,277.5 217,277C217,276.4 217.2,272.6 217.2,270.9C217.2,270.6 217.2,270.2 216.9,270.2C216.5,270.2 215.1,270.8 211.7,270.8L191.9,270.8C191.3,270.8 189.3,270.7 187.7,270.5C186.3,270.4 185.8,269.8 185.4,269.8C185.2,269.8 185,270.5 184.9,270.8C184.8,271.2 183.7,276 183.7,276.5C183.7,276.8 183.8,277 184,277C184.2,277 184.4,276.9 184.5,276.4C184.7,276 184.8,275.6 185.4,274.7C186.2,273.4 187.5,273 190.8,272.9L198.6,272.8L198.6,296.1C198.6,301.4 198.6,305.7 198.3,308.1C198.1,309.7 197.8,310.9 196.8,311.1C196.3,311.2 195.7,311.3 195.2,311.3C194.9,311.3 194.8,311.5 194.8,311.6C194.8,311.9 195.1,312 195.6,312C197.2,312 200.5,311.8 200.8,311.8C201.1,311.8 204.4,312 207.3,312C207.9,312 208.1,311.8 208.1,311.6C208.1,311.4 208,311.3 207.7,311.3C207.2,311.3 206.1,311.2 205.3,311.1C203.7,310.9 203.4,309.7 203.2,308.1C202.9,305.8 202.9,301.4 202.9,296.1L202.9,273.1L203,273.1ZM260.1,273.1L266.7,273.2C271.8,273.3 273,274.6 273.2,276.2L273.3,276.8C273.4,277.6 273.5,277.7 273.7,277.7C273.9,277.7 274.1,277.5 274.1,277C274.1,276.4 274.3,272.6 274.3,270.9C274.3,270.6 274.3,270.2 274,270.2C273.6,270.2 272.2,270.8 268.8,270.8L249,270.8C248.4,270.8 246.4,270.7 244.8,270.5C243.4,270.4 242.9,269.8 242.5,269.8C242.3,269.8 242.1,270.5 242,270.8C241.9,271.2 240.8,276 240.8,276.5C240.8,276.8 240.9,277 241.1,277C241.3,277 241.5,276.9 241.6,276.4C241.8,276 241.9,275.6 242.5,274.7C243.3,273.4 244.6,273 247.9,272.9L255.7,272.8L255.7,296.1C255.7,301.4 255.7,305.7 255.4,308.1C255.2,309.7 254.9,310.9 253.9,311.1C253.4,311.2 252.8,311.3 252.3,311.3C252,311.3 251.9,311.5 251.9,311.6C251.9,311.9 252.2,312 252.7,312C254.3,312 257.6,311.8 257.9,311.8C258.2,311.8 261.5,312 264.4,312C265,312 265.2,311.8 265.2,311.6C265.2,311.4 265.1,311.3 264.8,311.3C264.3,311.3 263.2,311.2 262.4,311.1C260.8,310.9 260.5,309.7 260.3,308.1C260,305.8 260,301.4 260,296.1L260,273.1L260.1,273.1ZM318.4,270C303.9,270 297.7,282.6 297.7,291.6C297.7,301.5 303.7,313.3 318.1,313.3C330.8,313.3 339.1,303.1 339.1,290.8C339.1,277.8 330.3,270 318.4,270M319.5,311.1C310,311.1 302.6,302.8 302.6,290C302.6,277.9 309.2,271.9 318,271.9C326.3,271.9 334,279 334,292.2C334.1,308.2 324.3,311.1 319.5,311.1M372.4,278.5C374.1,280.5 380,287.4 386.1,294.3C391.7,300.6 399.3,308.7 399.8,309.2C402.6,312.1 403.2,312.7 403.6,312.7C404,312.7 404.1,312.4 404.1,308.8L404.2,276.5C404.2,273.2 404.4,272 406.1,271.6C406.7,271.4 407.1,271.4 407.4,271.4C407.8,271.4 408,271.2 408,271C408,270.7 407.6,270.6 407.1,270.6C404.9,270.6 403.2,270.8 402.6,270.8C402,270.8 399.5,270.6 397.1,270.6C396.5,270.6 396,270.7 396,271C396,271.2 396.1,271.4 396.4,271.4C396.8,271.4 398,271.5 399,271.7C400.6,272.1 401,273.4 401.1,276.9L401.7,304.9C400,303.1 394.3,296.4 389.1,290.5C381,281.4 373.1,272.5 372.4,271.6C371.9,271 371,269.8 370.6,269.8C370.2,269.8 370,270.4 370,272.6L369.9,304.2C369.9,309.2 369.6,310.8 368.3,311.2C367.5,311.5 366.6,311.5 366.1,311.5C365.8,311.5 365.7,311.6 365.7,311.8C365.7,312.2 366,312.2 366.5,312.2C368.9,312.2 371.1,312 371.6,312C372.1,312 374.2,312.2 377.2,312.2C377.8,312.2 378.1,312.1 378.1,311.8C378.1,311.6 377.9,311.5 377.7,311.5C377.2,311.5 376.1,311.4 375.1,311.2C373.7,310.8 373.2,309.3 373,304.8L372.4,278.5ZM445.9,286.7C445.9,278.1 445.9,276.6 446,274.8C446.1,272.9 446.5,271.9 447.9,271.7C448.5,271.6 448.8,271.5 449.2,271.5C449.4,271.5 449.6,271.4 449.6,271.2C449.6,270.9 449.3,270.8 448.8,270.8C447.2,270.8 443.9,271 443.6,271C443.3,271 440,270.8 438.3,270.8C437.7,270.8 437.5,270.9 437.5,271.2C437.5,271.4 437.7,271.5 437.9,271.5C438.3,271.5 439,271.6 439.5,271.7C440.7,272 441.2,272.9 441.3,274.8C441.4,276.6 441.4,278.1 441.4,286.7L441.4,296.4C441.4,301.7 441.4,306 441.1,308.4C440.9,310 440.6,311.2 439.6,311.4C439.1,311.5 438.5,311.6 438,311.6C437.7,311.6 437.6,311.8 437.6,311.9C437.6,312.2 437.9,312.3 438.4,312.3C440,312.3 443.3,312.1 443.6,312.1C443.9,312.1 447.2,312.3 450.1,312.3C450.7,312.3 450.9,312.1 450.9,311.9C450.9,311.7 450.8,311.6 450.5,311.6C450,311.6 448.9,311.5 448.1,311.4C446.5,311.2 446.2,310 446,308.4C445.7,306.1 445.7,301.7 445.7,296.4L445.7,286.7L445.9,286.7ZM-102,302.3L-92.5,302.3L-92.5,253.7L-102,263.7L-102,302.3ZM-96.1,251.7L-104.4,246.5L-112.7,251.7L-104.4,256.9L-96.1,251.7ZM-106.7,263.7L-116.2,253.7L-116.2,302.3L-106.7,302.3L-106.7,263.7ZM460.6,274.9C460.6,278.8 463.6,281.9 467.3,281.9C471,281.9 474,278.8 474,274.9C474,271 471,267.9 467.3,267.9C463.6,267.9 460.6,271 460.6,274.9M473,274.9C473,278.3 470.5,281.2 467.3,281.2C464,281.2 461.4,278.3 461.5,274.9C461.5,271.5 464,268.6 467.3,268.6C470.5,268.6 473,271.4 473,274.9M465.3,275.7L465.3,277.9C465.3,278.4 465.2,278.4 464.6,278.5C464.5,278.5 464.4,278.6 464.4,278.6C464.4,278.6 464.5,278.7 464.6,278.7L467.1,278.7C467.2,278.7 467.3,278.6 467.3,278.6C467.3,278.5 467.2,278.5 467.1,278.5C466.9,278.5 466.6,278.5 466.4,278.4C466.3,278.3 466.2,278.2 466.2,276.4L466.2,275.5L467.6,275.5C467.8,275.8 468.2,276.5 468.6,277.1C469.1,277.9 469.5,278.4 469.9,278.6C470.2,278.8 470.7,278.8 471.1,278.8L471.3,278.8C471.5,278.8 471.5,278.7 471.5,278.7C471.5,278.6 471.5,278.6 471.3,278.6C470.9,278.6 470.5,278.2 470.3,277.9C469.7,277.3 469.1,276.3 468.3,275.2C469.3,274.2 469.5,273.6 469.5,272.9C469.5,272.2 469.1,271.7 468.8,271.5C468.6,271.3 468.1,271.1 466.9,271.1L464.4,271.1C464.3,271.1 464.2,271.1 464.2,271.2C464.2,271.3 464.3,271.3 464.4,271.3C464.9,271.3 465.2,271.4 465.2,271.9L465.2,275.7L465.3,275.7ZM466.2,271.4C466.3,271.3 466.7,271.3 466.8,271.3C467.9,271.3 468.5,272.1 468.5,273.3C468.5,274.1 468.2,274.6 467.9,274.8C467.7,275 467.5,275 467.2,275C466.8,275 466.3,274.9 466.1,274.8L466.1,271.4L466.2,271.4Z" style="fill-rule:nonzero;"/>
    </g>
</svg>
