<?xml version="1.0" encoding="UTF-8" standalone="no"?>
<!DOCTYPE svg PUBLIC "-//W3C//DTD SVG 1.1//EN" "http://www.w3.org/Graphics/SVG/1.1/DTD/svg11.dtd">
<svg width="100%" height="100%" viewBox="0 0 147 95" version="1.1" xmlns="http://www.w3.org/2000/svg" xmlns:xlink="http://www.w3.org/1999/xlink" xml:space="preserve" xmlns:serif="http://www.serif.com/" style="fill-rule:evenodd;clip-rule:evenodd;stroke-linejoin:round;stroke-miterlimit:2;">
    <g id="vgp_ar-2020_eng" transform="matrix(1.33333,0,0,-1.33333,-75.5907,1111.18)">
        <g id="g2258" transform="matrix(1,0,0,1,70.313,775.881)">
            <path id="path2260" d="M0,0L-13.62,41.443L-6.461,41.443L-0.815,24.156C1.106,18.394 2.794,12.573 4.365,6.81L4.482,6.81C5.996,12.573 7.742,18.394 9.604,24.156L15.25,41.443L22.41,41.443L8.847,0L0,0" style="fill-rule:nonzero;"/>
        </g>
        <g id="g2262" transform="matrix(1,0,0,1,112.868,791.48)">
            <path id="path2264" d="M0,0L10.562,0C10.18,-7.342 6.135,-10.71 0.058,-10.71C-7.159,-10.71 -11.641,-4.773 -11.641,4.948C-11.641,14.61 -7.043,20.489 0.349,20.489C5.646,20.489 8.964,17.87 9.779,13.155L17.229,13.155C16.415,21.421 10.186,26.717 0.349,26.717C-11.524,26.717 -18.859,18.452 -18.859,4.948C-18.859,-8.323 -12.107,-16.356 -1.513,-16.356C4.191,-16.356 8.789,-14.086 11.001,-10.477L11.118,-10.477L11.118,-15.599L17.113,-15.599L17.113,5.821L0,5.821L0,0" style="fill-rule:nonzero;"/>
        </g>
        <g id="g2266" transform="matrix(1,0,0,1,151.481,817.324)">
            <path id="path2268" d="M0,0C9.779,0 14.843,-5.18 14.843,-12.922C14.843,-20.722 9.779,-25.902 0,-25.902L-7.974,-25.902L-7.974,-41.443L-14.959,-41.443L-14.959,0L0,0ZM-7.974,-20.023L-0.815,-20.023C5.064,-20.023 7.683,-17.346 7.683,-12.922C7.683,-8.556 5.064,-5.879 -0.815,-5.879L-7.974,-5.879L-7.974,-20.023" style="fill-rule:nonzero;"/>
        </g>
        <rect id="path2270" x="56.693" y="828.356" width="108.759" height="5.03" style="fill-rule:nonzero;"/>
        <rect id="path2272" x="56.693" y="762.52" width="108.759" height="5.03" style="fill-rule:nonzero;"/>
    </g>
</svg>
